<svg width="33" height="32" viewBox="0 0 33 32" fill="none" xmlns="http://www.w3.org/2000/svg">
<path d="M8.87075 6.19592C10.2857 5.19545 14 0.865908 22.6228 2.69181C30.313 5.55213 33.7143 13.8545 31.4286 21.3591C29.2668 28.0735 21.3363 32.6128 14.2486 31.9388C6.68866 31.2216 1.33929 25.9762 0.211609 18.173C-0.952713 10.1062 2.74381 3.26215 9.91701 0.285168C10.3753 0.0929572 11.0118 0.0147075 11.6062 0.00192097C11.6845 0.00023619 11.7293 0.0838275 11.6818 0.146122C10.981 1.06529 7.71429 4.63613 7.71429 4.90681C7.39674 5.28704 7.64536 6.17 8.13389 6.52862C8.25195 6.61503 8.87075 6.19592 8.87075 6.19592ZM10.5195 23.0122C10.3233 22.928 9.65238 22.1221 9.13129 22.8048C8.85109 23.1719 9.42857 23.6682 9.42857 23.6682C10 24.2454 13.4286 30.0182 24.0639 24.4337C28.5714 21.3591 28.6927 14.3491 25.8471 9.7346C23.4777 5.88915 18.6901 4.45035 14.3952 6.32554C10.6783 7.95014 8.7934 10.8148 9.41627 15.1614C9.92922 18.7433 14.0858 21.9622 17.2531 21.0765C20.3226 20.2167 21.8411 17.9397 21.4137 14.4788C21.0395 11.461 19.0889 10.5786 15.958 9.92086C15.8495 9.89806 15.8517 9.74402 15.9614 9.72798C21.6078 8.90263 24.6827 11.1414 24.2878 16.5181C23.7993 23.185 17.4286 25.9773 10.5195 23.0122ZM7.26267 9.48831C7.13647 9.22475 7.04284 8.797 6.88407 8.76675C6.65202 8.72355 6.22863 8.89638 6.13907 9.09945C5.93552 9.57473 6.135 10.0154 6.67238 10.0241C6.86372 10.0241 7.05912 9.67843 7.26267 9.48399V9.48831Z" fill="#DB2777"/>
</svg>
